<?xml version="1.0" encoding="UTF-8" standalone="no"?>
<!-- Created with Inkscape (http://www.inkscape.org/) -->

<svg
   xmlns:dc="http://purl.org/dc/elements/1.1/"
   xmlns:cc="http://creativecommons.org/ns#"
   xmlns:rdf="http://www.w3.org/1999/02/22-rdf-syntax-ns#"
   xmlns:svg="http://www.w3.org/2000/svg"
   xmlns="http://www.w3.org/2000/svg"
   xmlns:sodipodi="http://sodipodi.sourceforge.net/DTD/sodipodi-0.dtd"
   xmlns:inkscape="http://www.inkscape.org/namespaces/inkscape"
   width="76.706352mm"
   height="76.706352mm"
   viewBox="0 0 76.706352 76.706352"
   version="1.1"
   id="svg8"
   inkscape:version="0.92.2 2405546, 2018-03-11"
   sodipodi:docname="logo.svg">
  <defs
     id="defs2">
    <clipPath
       clipPathUnits="userSpaceOnUse"
       id="clipPath919">
      <g
         aria-label="J"
         transform="matrix(2.1508605,0,0,2.1508605,-153.16814,-545.0523)"
         style="font-style:normal;font-weight:normal;font-size:40px;line-height:1.25;font-family:sans-serif;letter-spacing:0px;word-spacing:0px;fill:#000000;fill-opacity:1;stroke:none"
         id="g923">
        <path
           style="font-style:normal;font-variant:normal;font-weight:normal;font-stretch:normal;font-family:poppins;-inkscape-font-specification:poppins"
           d="m 113.78258,266.85273 c -0.0115,7.19985 0.0232,14.40052 -0.0176,21.59984 -0.0402,2.92113 -1.94283,5.84783 -4.87398,6.55008 -3.23288,0.82369 -7.25294,0.22498 -9.290706,-2.66637 -1.154834,-1.61634 -1.542454,-3.64977 -1.537736,-5.60355 1.213334,0 2.426672,0 3.640002,0 -0.0782,2.08659 0.79934,4.69913 3.11328,5.14328 1.77948,0.41984 4.11189,0.0132 4.87297,-1.87187 0.73999,-1.69776 0.35866,-3.58939 0.45375,-5.38498 0,-5.92214 0,-11.84429 0,-17.76643 1.21333,0 2.42667,0 3.64,0 z"
           id="path921"
           inkscape:connector-curvature="0" />
      </g>
    </clipPath>
  </defs>
  <sodipodi:namedview
     id="base"
     pagecolor="#ffffff"
     bordercolor="#666666"
     borderopacity="1.0"
     inkscape:pageopacity="0.0"
     inkscape:pageshadow="2"
     inkscape:zoom="0.98994949"
     inkscape:cx="-112.409"
     inkscape:cy="132.70544"
     inkscape:document-units="mm"
     inkscape:current-layer="g836"
     showgrid="false"
     showguides="false"
     fit-margin-top="0"
     fit-margin-left="0"
     fit-margin-right="0"
     fit-margin-bottom="0"
     inkscape:window-width="1366"
     inkscape:window-height="745"
     inkscape:window-x="0"
     inkscape:window-y="23"
     inkscape:window-maximized="1" />
  <metadata
     id="metadata5">
    <rdf:RDF>
      <cc:Work
         rdf:about="">
        <dc:format>image/svg+xml</dc:format>
        <dc:type
           rdf:resource="http://purl.org/dc/dcmitype/StillImage" />
        <dc:title></dc:title>
      </cc:Work>
    </rdf:RDF>
  </metadata>
  <g
     inkscape:label="Layer 1"
     inkscape:groupmode="layer"
     id="layer1"
     transform="translate(-42.763126,-21.712379)">
    <g
       id="g836">
      <g
         id="g855">
        <circle
           style="opacity:1;fill:#07090a;fill-opacity:1;stroke:none;stroke-width:0.33083573;stroke-linecap:round;stroke-linejoin:round;stroke-miterlimit:4;stroke-dasharray:none;stroke-opacity:1;paint-order:stroke markers fill"
           id="path943"
           cx="81.116302"
           cy="60.065556"
           r="38.353176" />
        <g
           id="g916"
           transform="translate(2e-6,-2e-6)"
           clip-path="url(#clipPath919)">
          <path
             style="opacity:1;fill:#ffdf38;fill-opacity:1;stroke:none;stroke-width:0.40000001;stroke-linecap:round;stroke-linejoin:round;stroke-miterlimit:4;stroke-dasharray:none;stroke-opacity:1;paint-order:stroke markers fill"
             d="m 47.841238,71.691778 c 17.63979,0 35.279579,0 52.919372,0 0,8.819894 0,17.639789 0,26.459683 -17.639793,0 -35.279582,0 -52.919372,0 0,-8.819894 0,-17.639789 0,-26.459683 z"
             id="rect845-1-7"
             inkscape:connector-curvature="0" />
          <path
             style="opacity:1;fill:#3a9fff;fill-opacity:1;stroke:none;stroke-width:0.40000001;stroke-linecap:round;stroke-linejoin:round;stroke-miterlimit:4;stroke-dasharray:none;stroke-opacity:1;paint-order:stroke markers fill"
             d="m 47.841244,18.772421 c 17.639789,0 35.279579,0 52.919366,0 0,8.819894 0,17.639787 0,26.459681 -17.639787,0 -35.279577,0 -52.919366,0 0,-8.819894 0,-17.639787 0,-26.459681 z"
             id="rect845"
             inkscape:connector-curvature="0" />
          <path
             style="opacity:1;fill:#ff3165;fill-opacity:1;stroke:none;stroke-width:0.40000001;stroke-linecap:round;stroke-linejoin:round;stroke-miterlimit:4;stroke-dasharray:none;stroke-opacity:1;paint-order:stroke markers fill"
             d="m 47.841242,45.2321 c 17.639789,0 35.279579,0 52.919368,0 0,8.819894 0,17.639788 0,26.459682 -17.639789,0 -35.279579,0 -52.919368,0 0,-8.819894 0,-17.639788 0,-26.459682 z"
             id="rect845-1"
             inkscape:connector-curvature="0" />
        </g>
      </g>
    </g>
    <flowRoot
       xml:space="preserve"
       id="flowRoot815"
       style="font-style:normal;font-weight:normal;font-size:40px;line-height:1.25;font-family:sans-serif;letter-spacing:0px;word-spacing:0px;fill:#000000;fill-opacity:1;stroke:none"
       transform="scale(0.26458333)"><flowRegion
         id="flowRegion817"><rect
           id="rect819"
           width="685.71429"
           height="345.71429"
           x="97.14286"
           y="316.80539" /></flowRegion><flowPara
         id="flowPara821" /></flowRoot>    <flowRoot
       xml:space="preserve"
       id="flowRoot831"
       style="font-style:normal;font-weight:normal;font-size:40px;line-height:1.25;font-family:sans-serif;letter-spacing:0px;word-spacing:0px;fill:#000000;fill-opacity:1;stroke:none"
       transform="scale(0.26458333)"><flowRegion
         id="flowRegion833"><rect
           id="rect835"
           width="465.71429"
           height="48.57143"
           x="-102.85714"
           y="271.09113" /></flowRegion><flowPara
         id="flowPara837" /></flowRoot>  </g>
</svg>
